<?xml version="1.0" encoding="utf-8"?>
<!-- Generator: Adobe Illustrator 15.1.0, SVG Export Plug-In . SVG Version: 6.00 Build 0)  -->
<!DOCTYPE svg PUBLIC "-//W3C//DTD SVG 1.1//EN" "http://www.w3.org/Graphics/SVG/1.1/DTD/svg11.dtd">
<svg version="1.1" xmlns="http://www.w3.org/2000/svg" xmlns:xlink="http://www.w3.org/1999/xlink" x="0px" y="0px"
	 width="793.781px" height="591.406px" viewBox="0 0 793.781 591.406" enable-background="new 0 0 793.781 591.406"
	 xml:space="preserve">
<g id="Layer_2">
	
		<image overflow="visible" opacity="0.35" width="535" height="272" xlink:href="../../../../../../../Users/Ross/Documents/staff.jpg"  transform="matrix(1 0 0 1.1452 80.3906 105.5029)">
	</image>
</g>
<g id="staff" xmlns:dc="http://purl.org/dc/elements/1.1/" xmlns:cc="http://creativecommons.org/ns#" xmlns:rdf="http://www.w3.org/1999/02/22-rdf-syntax-ns#" xmlns:svg="http://www.w3.org/2000/svg" xmlns:sodipodi="http://sodipodi.sourceforge.net/DTD/sodipodi-0.dtd" xmlns:inkscape="http://www.inkscape.org/namespaces/inkscape" inkscape:version="0.48.0 r9654" sodipodi:docname="New document 1">
	
		<sodipodi:namedview  id="base" inkscape:window-maximized="1" inkscape:cy="291.59841" inkscape:cx="349.7126" inkscape:zoom="0.93376737" fit-margin-left="0" borderopacity="1.0" fit-margin-top="0" bordercolor="#666666" showgrid="false" pagecolor="#ffffff" inkscape:window-y="-8" inkscape:window-x="-8" inkscape:window-height="1000" inkscape:window-width="1680" fit-margin-bottom="0" fit-margin-right="0" inkscape:current-layer="layer2" inkscape:document-units="px" inkscape:pageshadow="2" inkscape:pageopacity="0.0">
		</sodipodi:namedview>
	
		<g id="layer1" transform="translate(28.0625,-169.53125)" sodipodi:insensitive="true" inkscape:groupmode="layer" inkscape:label="Layer 1" display="none">
		
			<image display="inline" overflow="visible" enable-background="new    " width="250" height="183" id="image3012" xlink:href="C044B2C8.png"  transform="matrix(3.4356 0 0 3.4356 -65.001 158.0049)">
		</image>
	</g>
	<g id="layer2" transform="translate(28.0625,-169.53125)" inkscape:groupmode="layer" inkscape:label="Layer">
		<path id="path126" inkscape:connector-curvature="0" d="M115.344,169.531c-0.45,0-0.925,0.071-1.375,0.25
			c-4.867,1.803-8.758,4.69-11.688,8.656c-2.929,3.964-5.208,8.436-6.875,13.438s-2.838,10.135-3.469,15.406
			c-0.478,3.99-0.759,7.75-0.875,11.25h-62.5v-0.063h-4v541.469h4v1h368.594h368.563V757.5v-3.438H397.156H28.563v-34.281h368.594
			h368.563v-3.438v-3.406H397.156H28.563v-34.313h368.594h368.563v-3.406v-3.438H397.156H28.563V637.5h368.594h368.563v-3.438
			v-3.438H397.156H28.563v-34.281h368.594h368.563v-3.406V589.5H397.156H28.563V389.938h94.063c0.852,3.35,2.116,8.384,4.469,17.875
			c0.631,3.326,1.073,5.789,1.344,7.375c0.27,1.569,0.372,3.793,0.281,6.625c-0.089,2.849-0.397,5.561-0.938,8.188
			c-0.541,2.61-1.356,4.723-2.438,6.344c-1.711,2.252-4.074,4.354-7.094,6.281c-3.02,1.945-6.262,3.284-9.688,4
			c-3.424,0.716-6.756,0.651-10-0.219c-3.244-0.853-5.76-2.884-7.563-6.125c4.416,0.17,7.866-0.711,10.344-2.656
			c2.479-1.928,4.127-4.296,4.938-7.094c0.812-2.797,0.845-5.793,0.125-9c-0.722-3.19-1.997-5.904-3.844-8.156
			c-1.848-2.251-4.193-3.806-7.031-4.625c-2.839-0.802-6.017-0.308-9.531,1.5c-3.154,1.518-5.688,4.048-7.625,7.563
			s-2.906,6.938-2.906,10.281c0,5.305,1.6,9.83,4.844,13.531s7.255,6.428,12.031,8.219c3.875,1.535,7.851,2.313,11.906,2.313
			c1.17,0,3.362-0.224,6.563-0.719c3.198-0.512,6.72-2.183,10.594-5.031c3.875-2.832,6.983-6.479,9.281-11
			c2.298-4.503,3.266-9.561,2.906-15.156c-0.36-5.851-0.921-10.611-1.688-14.313c-0.635-3.064-1.877-8.744-3.469-16h268.719h368.563
			v-3.406v-3.438H397.156H128.375c0.296-0.228,0.66-0.449,1.094-0.625c1.667-0.675,2.941-1.271,3.844-1.813
			c8.109-4.596,14.024-11.666,17.719-21.219c1.023-3.581,1.671-7.134,1.969-10.625h244.156h368.563v-3.438v-3.438H397.156H153.063
			c-0.301-3.965-1.245-7.906-2.906-11.781c-2.028-4.73-4.746-8.965-8.125-12.75s-7.408-6.774-12.094-8.938
			c-0.765-0.301-1.546-0.563-2.344-0.813h269.563h368.563v-3.406v-3.438H397.156h-286.75l-4.531-22.219
			c0-0.181,0.39-0.706,1.156-1.563c0.766-0.854,1.634-1.759,2.625-2.75l2.906-2.906c0.947-0.945,1.609-1.607,1.969-1.969
			c0.821-0.943,1.563-1.904,2.281-2.875h280.344h368.563v-3.438v-3.438H397.156h-276c0.629-1.07,1.257-2.159,1.875-3.219
			c3.695-7.209,6.159-14.619,7.375-22.188c0.474-2.952,0.828-5.896,1.063-8.875h265.688h368.563v-3.438v-3.406H397.156H131.781
			c0.042-2.404,0.019-4.828-0.094-7.25c-0.181-5.136-0.843-10.286-1.969-15.469c-1.127-5.181-2.88-10.061-5.313-14.656
			c-0.362-0.541-0.905-1.577-1.625-3.063c-0.722-1.487-1.555-2.916-2.5-4.313c-0.947-1.397-1.862-2.468-2.719-3.188
			C116.706,169.872,115.975,169.531,115.344,169.531L115.344,169.531z M117.5,194.219c0.879-0.067,1.746-0.023,2.625,0.156
			c1.757,0.362,3.2,1.686,4.281,3.938c1.532,2.524,2.11,5.618,1.75,9.313c-0.362,3.695-1.04,7.027-2.031,10
			c-0.095,0.294-0.211,0.604-0.313,0.906H99.688c0.441-1.764,0.942-3.504,1.531-5.219c1.486-4.326,3.204-8.236,5.188-11.75
			c0.72-1.082,1.893-2.322,3.469-3.719c1.578-1.397,3.243-2.431,5-3.063C115.753,194.466,116.621,194.286,117.5,194.219z
			 M10.031,218.531c-1.64,0.097-3.38,1.832-6.344,6.094c-5.995,7.937-14.595,26.525-18.031,36.219
			c-5.153,20.335-6.843,45.064-5.125,68.938c0.841,7.928,2.532,25.583,5.125,39.719c4.277,33.602,5.156,47.739,5.156,61.875
			c-0.876,22.969-6.849,41.504-16.313,53.875c-1.718,1.765-2.563,3.533-2.563,4.438s0.844,2.673,2.563,4.438
			c9.464,12.371,15.437,30.891,16.313,53c0,14.996-0.879,29.115-5.156,61.813c-2.593,15.041-4.284,32.713-5.125,39.781
			c-1.718,24.733-0.028,49.476,5.125,68.906c4.277,15.9,19.751,43.313,24.063,43.313c1.718,0,3.438-1.789,3.438-3.563
			c0-0.896-1.72-3.519-3.438-6.188c-10.306-14.996-14.626-30.031-16.344-53c0-14.136,0.879-27.402,5.156-60.969
			c1.718-13.231,3.438-29.136,4.313-35.344C6.28,559.476-0.573,523.248-17.75,496.75c-2.594-3.539-4.313-7.063-4.313-7.063
			s1.719-3.555,4.313-7.094c17.177-26.499,24.03-62.727,20.594-106.031c-0.875-5.303-2.595-21.185-4.313-35.313
			c-4.277-32.671-5.156-45.958-5.156-60.094c1.718-22.969,6.038-38.004,16.344-53c3.435-5.303,4.312-7.048,2.594-8.813
			C11.502,218.79,10.776,218.487,10.031,218.531z M28.563,225.375h62.531c0.186,4.798,0.716,9.5,1.656,14.094
			c1.171,5.723,2.53,11.554,4.063,17.5c-1.036,0.892-2.054,1.778-3.063,2.688H28.563V225.375z M98.344,225.375h22.875
			c-0.223,0.531-0.45,1.047-0.688,1.594c-1.486,3.425-3.224,6.773-5.25,10.063c-2.028,3.289-4.237,6.367-6.625,9.25
			c-2.388,2.885-4.988,5.057-7.781,6.5c-1.532-4.145-2.501-8.345-2.906-12.625c-0.405-4.282-0.353-8.767,0.188-13.406
			C98.21,226.287,98.28,225.835,98.344,225.375z M28.563,266.531h58.031c-4.351,4.418-8.412,9.01-12.156,13.813
			c-4.95,6.35-9.402,13.188-13.344,20.469H28.563V266.531z M101.156,282.656l3.781,18.156H82.656
			c1.72-2.023,3.503-4.007,5.375-5.938C92.357,290.414,96.741,286.351,101.156,282.656z M28.563,307.656h29.031
			c-0.044,0.092-0.081,0.188-0.125,0.281c-2.523,6.398-3.781,13.232-3.781,20.531v7.781c0,1.604,0.303,3.505,0.875,5.688h-26
			V307.656z M77.281,307.656h27.531c-0.838,0.595-1.799,1.283-2.313,1.625c-0.811,0.541-1.644,1.119-2.5,1.75
			s-1.382,1.038-1.563,1.219c-3.334,2.433-6.223,5.323-8.656,8.656c-1.982,3.154-3.53,6.621-4.656,10.406
			c-1.021,3.431-1.419,6.973-1.219,10.625h-19.25c0.039-6.004,1.078-11.748,3.156-17.188c2.118-5.542,4.955-10.793,8.469-15.75
			C76.605,308.542,76.95,308.109,77.281,307.656z M115.063,325.094c6.849,0,12.526,2.345,17.031,7.031
			c2.875,2.99,5.089,6.254,6.625,9.813h-20.188L115.063,325.094z M110.344,325.625c1.009,5.19,2.142,10.965,3.188,16.313H94.594
			c0.854-3.206,2.434-6.213,4.781-9C102.258,329.512,105.927,327.066,110.344,325.625z M28.563,348.813h28.344
			c0.688,1.692,1.498,3.491,2.406,5.406c3.74,7.886,8.702,14.616,14.875,20.156c4.055,3.641,8.515,6.536,13.406,8.719H28.563
			V348.813z M65.219,348.813h19.75c1.515,5.55,4.602,10.258,9.281,14.125c3.334,2.792,7.208,4.662,11.625,5.563
			c1.08,0,1.488-0.474,1.219-1.375c-0.271-0.901-0.95-1.344-2.031-1.344c-4.596-2.434-7.739-5.627-9.406-9.594
			c-1.025-2.438-1.625-4.903-1.781-7.375h21.031c1.808,9.22,3.522,18.106,5.438,27.781l0.813,3.781c0,0.36-0.698,0.716-2.094,1.031
			c-1.397,0.315-2.925,0.605-4.594,0.875c-1.667,0.271-3.263,0.508-4.75,0.688c-0.744,0.09-0.833,0.08-1.25,0.125h-4.438
			c-4.23-0.339-8.419-1.338-12.563-3.031c-5.182-2.119-9.754-5.055-13.719-8.75c-3.965-3.693-7.143-8.03-9.531-13.031
			C66.772,355.252,65.789,352.09,65.219,348.813z M119.969,348.813h20.813c1.083,5.9,0.531,11.708-1.656,17.438
			c-2.253,5.902-6.57,10.066-12.969,12.5L119.969,348.813z"/>
		<g id="g2992" transform="matrix(1.7967812,0,0,1.7967812,-68.612364,500.57522)">
			<path id="path2820" inkscape:connector-curvature="0" sodipodi:nodetypes="cssssssssssc" d="M62.512,127.84
				c0-0.84,4.042-4.295,8.982-7.679c10.621-7.275,18.292-15.234,22.754-23.609c10.231-19.208,6.99-39.234-6.645-41.064
				c-7.542-1.011-17.09,4.492-17.09,9.85c0,1.988,0.508,2.148,6.038,1.901c6.765-0.302,11.342,6.283,7.681,11.051
				c-5.785,7.534-19.718,3.206-19.718-6.125c0-8.178,4.977-14.687,13.736-17.964c18.745-7.013,36.588,5.916,35.026,25.38
				c-1.28,15.953-15.171,30.853-42.136,45.197C64.74,128.182,62.512,128.973,62.512,127.84L62.512,127.84z"/>
			
				<path id="path3598" sodipodi:type="arc" sodipodi:cx="128.4375" sodipodi:cy="65.625" sodipodi:rx="6.5625" sodipodi:ry="6.875" d="
				M128.612,66.12c0,3.247-2.513,5.88-5.613,5.88c-3.1,0-5.613-2.632-5.613-5.88c0-3.247,2.513-5.88,5.613-5.88
				C126.1,60.241,128.612,62.873,128.612,66.12z"/>
			
				<path id="path3600" sodipodi:type="arc" sodipodi:cx="128.4375" sodipodi:cy="65.625" sodipodi:rx="6.5625" sodipodi:ry="6.875" d="
				M129,86c0,3.247-2.513,5.88-5.613,5.88c-3.1,0-5.613-2.633-5.613-5.88c0-3.247,2.513-5.88,5.613-5.88
				C126.487,80.12,129,82.753,129,86z"/>
		</g>
	</g>
</g>
<g id="C3" display="none">
	<path display="inline" d="M433.779,654.949V505.703h-8.66v135.311c-7.947-6.605-20.17-9.763-32.939-7.493
		c-19.895,3.543-33.53,18.877-30.452,34.249c3.08,15.375,21.704,24.968,41.6,21.431
		C423.225,685.659,436.857,670.324,433.779,654.949z"/>
	
		<line display="inline" stroke="#000000" stroke-width="3" stroke-miterlimit="10" x1="397.754" y1="614.203" x2="473.391" y2="614.203"/>
	
		<line display="inline" stroke="#000000" stroke-width="3" stroke-miterlimit="10" x1="398.234" y1="657.203" x2="473.871" y2="657.203"/>
</g>
<g id="D3" display="none">
	<path display="inline" d="M433.779,654.949V505.703h-8.66v135.311c-7.947-6.605-20.17-9.763-32.939-7.493
		c-19.895,3.543-33.53,18.877-30.452,34.249c3.08,15.375,21.704,24.968,41.6,21.431
		C423.225,685.659,436.857,670.324,433.779,654.949z"/>
	
		<line display="inline" stroke="#000000" stroke-width="3" stroke-miterlimit="10" x1="397.754" y1="614.203" x2="473.391" y2="614.203"/>
</g>
<g id="E3">
	<path d="M441.779,634.813V485.567h-8.66v135.311c-7.947-6.605-20.17-9.763-32.939-7.493c-19.895,3.543-33.53,18.877-30.451,34.249
		c3.08,15.375,21.704,24.968,41.6,21.431C431.225,665.523,444.857,650.188,441.779,634.813z"/>
	<line stroke="#000000" stroke-width="3" stroke-miterlimit="10" x1="405.754" y1="631.203" x2="481.391" y2="631.203"/>
</g>
</svg>
